PathFileType	4	(X/Y/Z)	E:\Qualisys_Data\Carbon_Farble_Plate\Data\Amateur_Runner\S1\T2\S1T2V12_c3d.trc
DataRate	CameraRate	NumFrames	NumMarkers	Units	OrigDataRate	OrigDataStartFrame	OrigNumFrames
200.000000	200.000000	4	39	mm	200.000000	39	312
Frame#	Time	LSHO			RSHO			LICST			RICST			LASIS			LHEEL			RASIS			LTROC			RTROC			SACR			LTH1			LSK4			LTH2			LTH3			RHM5			LSK2			LTH4			RTH1			LTOE			RTH2			RTH3			RTH4			LLEP			RLEP			LSK1			LSK3			RSK1			LHM5			RSK2			LFT1			RSK3			RSK4			LLME			RLME			RTOE			RHEEL			RFT1			RFT2			LFT2			
		X1	Y1	Z1	X2	Y2	Z2	X3	Y3	Z3	X4	Y4	Z4	X5	Y5	Z5	X6	Y6	Z6	X7	Y7	Z7	X8	Y8	Z8	X9	Y9	Z9	X10	Y10	Z10	X11	Y11	Z11	X12	Y12	Z12	X13	Y13	Z13	X14	Y14	Z14	X15	Y15	Z15	X16	Y16	Z16	X17	Y17	Z17	X18	Y18	Z18	X19	Y19	Z19	X20	Y20	Z20	X21	Y21	Z21	X22	Y22	Z22	X23	Y23	Z23	X24	Y24	Z24	X25	Y25	Z25	X26	Y26	Z26	X27	Y27	Z27	X28	Y28	Z28	X29	Y29	Z29	X30	Y30	Z30	X31	Y31	Z31	X32	Y32	Z32	X33	Y33	Z33	X34	Y34	Z34	X35	Y35	Z35	X36	Y36	Z36	X37	Y37	Z37	X38	Y38	Z38	X39	Y39	Z39	

40	0.195	-1672.44091796875	1473.286254882812	-501.953857421875	-1717.014404296875	1431.941528320312	-174.4763946533203	-1720.307006835938	983.0538940429688	-495.0574340820312	-1729.075073242188	1026.12890625	-197.4526824951172	-1675.820922851562	950.9837646484376	-461.6484069824219	-2012.288818359375	388.8486633300781	-404.1008605957031	-1685.784912109375	981.5336303710938	-198.0788421630859	-1774.265502929688	855.4067993164062	-504.1370544433594	-1783.964599609375	884.815185546875	-169.2080841064453	-1842.67333984375	1014.537048339844	-346.8508911132812	-1601.9130859375	748.8344116210938	-489.1070251464844	-1870.756713867188	436.9707946777344	-436.3828430175781	-1677.1962890625	717.1502685546875	-514.80859375	-1566.037841796875	650.8505859375	-483.1411743164062	-1653.972045898438	63.44666290283203	-216.8193206787109	-1779.698364257812	465.2555236816406	-477.8030090332031	-1644.602416992188	621.9116821289062	-499.5708923339844	-1624.350341796875	782.5748901367188	-186.7877655029297	-1937.578247070312	146.7218933105469	-402.5106506347656	-1696.967163085938	759.5414428710938	-161.1456298828125	-1597.246948242188	684.7715454101562	-197.0716094970703	-1673.592651367188	663.3642578125	-179.7645721435547	-1579.455932617188	490.6954040527344	-471.9847106933594	-1613.484985351562	504.1693725585938	-225.2116088867188	-1756.679565429688	384.8602600097656	-471.4779052734375	-1855.819091796875	362.177978515625	-463.7038269042969	-1665.916381835938	318.7454833984375	-216.5936584472656	-1995.143676757812	195.5123596191406	-466.8116455078125	-1741.923461914062	346.618896484375	-221.5568695068359	-2038.583129882812	374.7036743164062	-380.0350036621094	-1698.341064453125	224.5037841796875	-234.7522277832031	-1772.544311523438	253.4471435546875	-248.8507537841797	-1973.729125976562	348.7985229492188	-455.263427734375	-1773.35546875	121.813720703125	-236.4234771728516	-1593.991821289062	71.19086456298828	-295.1351013183594	-1846.985229492188	100.222282409668	-275.0788879394531	-1839.223999023438	65.8845443725586	-303.6826782226562	-1846.780395507812	71.61207580566406	-248.3628387451172	-2042.63037109375	373.5986328125	-431.3232421875
41	0.2	-1659.131469726562	1473.972412109375	-502.5766906738281	-1698.582641601562	1433.196411132812	-174.3869323730469	-1707.355102539062	984.5745239257812	-494.1372985839844	-1711.373901367188	1026.549560546875	-196.5585327148438	-1661.3037109375	952.1968994140624	-462.5182189941406	-1985.610107421875	382.5851745605469	-404.236083984375	-1668.199462890625	981.09423828125	-198.7375030517578	-1759.302490234375	856.299072265625	-503.2765502929688	-1768.32666015625	884.6786499023438	-168.7290954589844	-1827.944091796875	1015.997619628906	-345.5989074707031	-1584.303466796875	753.3449096679688	-488.9955749511719	-1845.785888671875	435.1273193359375	-436.6490173339844	-1659.088989257812	719.1854858398438	-514.6235961914062	-1545.876953125	656.4070434570312	-483.0722351074219	-1653.677734375	63.29251861572266	-216.8730926513672	-1755.705322265625	465.0404357910156	-478.5296936035156	-1623.893310546875	625.126220703125	-499.1583862304688	-1611.282104492188	777.5559692382812	-186.0056762695312	-1907.861572265625	140.4426116943359	-402.8956604003906	-1684.0244140625	756.5828857421875	-160.7024230957031	-1587.201538085938	679.4692993164062	-197.3282928466797	-1663.794555664062	660.1128540039062	-180.2161407470703	-1555.092529296875	496.0176696777344	-471.6187133789062	-1607.149658203125	500.0427856445312	-225.5645751953125	-1729.3203125	385.3195190429688	-469.5343017578125	-1828.8291015625	360.4822082519531	-464.0546569824219	-1662.006469726562	316.914306640625	-217.0867614746094	-1962.015869140625	190.3921966552734	-467.1772155761719	-1737.959228515625	345.5605163574219	-221.9548492431641	-2008.782836914062	366.2269287109375	-376.9230651855469	-1696.325561523438	222.8301239013672	-235.715087890625	-1769.720336914062	253.2897033691406	-248.6550903320312	-1945.692016601562	343.7052307128906	-455.2968444824219	-1772.494262695312	122.1570663452148	-236.189453125	-1593.375122070312	70.57461547851562	-295.2295532226562	-1847.381591796875	101.1347351074219	-275.0915222167969	-1840.0400390625	66.44168853759766	-303.8417053222656	-1846.333251953125	72.50556182861328	-248.1859130859375	-2015.52880859375	366.2490539550781	-431.58984375
42	0.205	-1645.534790039062	1475.565185546875	-503.598388671875	-1680.072143554688	1434.709594726562	-174.7518463134766	-1692.962280273438	986.0742797851562	-494.7256164550781	-1694.518310546875	1027.143188476562	-197.0114288330078	-1647.1572265625	953.9617309570312	-463.5496215820312	-1959.462280273438	375.6911010742188	-404.4671325683594	-1652.2109375	980.6876220703124	-198.9392547607422	-1743.872924804688	857.8025512695312	-502.5482177734375	-1751.355346679688	884.7540283203125	-167.7587738037109	-1811.1611328125	1016.819458007812	-343.215087890625	-1567.616577148438	757.9915161132812	-489.2150573730469	-1820.888671875	432.9120788574219	-436.7325439453125	-1641.677124023438	722.36865234375	-514.9646606445312	-1527.311645507812	662.0736083984375	-482.4379577636719	-1653.572998046875	63.11529922485352	-217.2283935546875	-1729.775146484375	464.7895202636719	-475.6938781738281	-1604.31689453125	628.8857421875	-498.8805236816406	-1597.772094726562	772.92041015625	-184.8640899658203	-1873.5107421875	136.1359558105469	-402.6982116699219	-1671.945190429688	755.2308349609375	-161.3814239501953	-1578.191040039062	674.62890625	-196.9180450439453	-1655.616088867188	658.3068237304688	-181.2050323486328	-1531.623168945312	501.5932922363281	-471.0751647949219	-1600.781494140625	497.1959533691406	-226.1923217773438	-1703.550170898438	386.3278503417969	-469.9234924316406	-1801.104858398438	358.3456726074219	-462.9261169433594	-1657.322265625	314.9440612792969	-217.7904510498047	-1927.618408203125	184.1911315917969	-466.6698608398438	-1732.90966796875	345.2299499511719	-221.4891052246094	-1983.498901367188	357.8300170898438	-376.6991882324219	-1692.869873046875	222.618408203125	-236.1672821044922	-1766.261962890625	253.8712005615234	-248.3497161865234	-1917.705444335938	338.7006225585938	-455.2591552734375	-1772.0126953125	123.0161437988281	-236.4696807861328	-1593.03955078125	70.0357666015625	-295.1795959472656	-1846.70263671875	102.7417526245117	-275.2672424316406	-1839.600463867188	67.58654022216797	-303.8573608398438	-1845.5751953125	73.27471923828125	-247.7555541992188	-1988.492065429688	358.4439697265625	-432.2940673828125
43	0.21	-1631.077026367188	1477.419799804688	-504.3572998046875	-1662.119384765625	1436.671508789062	-174.8818206787109	-1678.33056640625	988.36376953125	-495.3720092773438	-1676.449584960938	1027.674682617188	-196.4151916503906	-1630.978149414062	954.034912109375	-466.1211547851562	-1933.4208984375	368.8320617675781	-404.7669982910156	-1632.316528320312	981.9953002929688	-200.3771362304688	-1728.760864257812	859.8095092773438	-502.249755859375	-1736.013916015625	885.6497802734375	-167.2796173095703	-1794.970703125	1018.480712890625	-341.4022521972656	-1551.0107421875	762.7762451171875	-489.6829223632812	-1795.604125976562	430.1608276367188	-436.4583129882812	-1623.804931640625	724.9240112304688	-514.2608032226562	-1507.439331054688	668.0728149414062	-482.3014221191406	-1653.02392578125	63.30641174316406	-216.9200134277344	-1704.962890625	464.5867309570312	-474.7476806640625	-1584.1923828125	632.919189453125	-498.4183349609375	-1584.7373046875	769.4238891601562	-184.2106628417969	-1838.654663085938	132.8088531494141	-403.1075744628906	-1660.444091796875	755.1036376953125	-161.9990997314453	-1569.75146484375	670.1162109375	-196.1144104003906	-1649.248046875	657.3955078125	-181.3776092529297	-1508.628540039062	507.6519470214844	-470.8682861328125	-1593.001708984375	494.8663024902344	-227.5560913085938	-1676.697631835938	387.1317749023438	-468.6295776367188	-1773.813354492188	356.3249816894531	-462.5485229492188	-1652.610107421875	314.3415222167969	-218.4126281738281	-1894.312377929688	178.4022674560547	-467.3194885253906	-1728.029296875	345.7955322265625	-220.9638366699219	-1955.870727539062	350.3615417480469	-378.1534118652344	-1689.262451171875	222.2843170166016	-236.6516571044922	-1762.712646484375	254.4388427734375	-247.6699371337891	-1889.266357421875	331.6447143554688	-455.6930847167969	-1771.790161132812	123.8319625854492	-236.4100494384766	-1592.871826171875	70.22293090820312	-295.7243347167969	-1846.060302734375	103.1087188720703	-274.8978881835938	-1840.110961914062	68.5414047241211	-303.748046875	-1846.508422851562	74.08035278320312	-248.1393890380859	-1960.74755859375	349.9063415527344	-432.3182678222656
